<?xml version="1.0" standalone="no"?>
<!DOCTYPE svg PUBLIC "-//W3C//DTD SVG 20010904//EN"
 "http://www.w3.org/TR/2001/REC-SVG-20010904/DTD/svg10.dtd">
<svg version="1.0" xmlns="http://www.w3.org/2000/svg"
 width="828.000000pt" height="796.000000pt" viewBox="0 0 828.000000 796.000000"
 preserveAspectRatio="xMidYMid meet">

<g transform="translate(0.000000,796.000000) scale(0.100000,-0.100000)"
fill="#000000" stroke="none">
<path d="M3987 7243 c-4 -3 -7 -84 -7 -178 0 -185 4 -201 48 -184 21 8 22 14
22 110 0 122 4 122 82 -17 54 -96 74 -113 116 -100 18 6 20 20 27 169 9 199 8
202 -30 202 l-30 0 -3 -113 c-2 -78 -6 -112 -14 -110 -6 2 -40 54 -76 116 -61
106 -66 112 -97 112 -17 0 -35 -3 -38 -7z"/>
<path d="M3444 7175 c-7 -18 53 -336 65 -348 12 -12 61 10 57 25 -3 7 -14 63
-26 123 -45 233 -39 215 -66 215 -14 0 -27 -7 -30 -15z"/>
<path d="M4761 7143 c-23 -89 -71 -294 -71 -307 0 -13 33 -25 130 -46 65 -14
77 -12 83 10 7 28 -15 46 -65 54 -63 10 -71 17 -62 60 6 37 7 37 53 34 45 -3
46 -2 46 26 0 24 -6 31 -35 41 -31 10 -35 15 -32 41 5 44 15 48 83 35 67 -14
83 -8 77 30 -3 19 -14 25 -78 41 -110 26 -117 25 -129 -19z"/>
<path d="M2913 7035 c-21 -15 -23 -24 -23 -104 0 -48 -3 -91 -7 -94 -3 -4 -36
22 -73 58 -61 58 -70 63 -96 56 -24 -7 -29 -13 -28 -37 1 -16 13 -55 28 -86
14 -31 26 -59 26 -62 0 -3 18 -44 39 -91 39 -84 40 -85 65 -73 14 6 26 15 26
19 0 4 -13 38 -29 75 -16 38 -27 72 -24 77 3 5 17 -3 32 -17 50 -48 102 -27
105 42 4 71 10 66 60 -50 25 -59 38 -67 68 -44 16 11 11 26 -52 177 -38 90
-75 165 -82 167 -7 1 -23 -5 -35 -13z"/>
<path d="M5365 6799 c-77 -155 -79 -161 -61 -175 28 -20 34 -18 57 21 12 19
25 35 30 35 5 0 29 -10 54 -22 l46 -23 -2 -49 c-3 -41 1 -52 19 -64 30 -20 42
-8 42 44 0 36 5 50 26 69 15 14 30 25 35 25 4 0 20 25 34 56 31 66 28 112 -9
149 -25 25 -157 95 -179 95 -7 0 -48 -72 -92 -161z m174 52 c51 -27 65 -45 56
-78 -11 -46 -33 -73 -60 -73 -27 0 -115 40 -115 52 0 22 54 118 67 118 7 0 31
-9 52 -19z"/>
<path d="M3900 6729 c-447 -38 -854 -172 -1200 -397 -95 -61 -254 -178 -309
-225 -177 -156 -332 -322 -449 -482 -28 -38 -59 -81 -70 -95 -67 -90 -228
-387 -267 -495 -10 -27 -22 -54 -25 -60 -4 -5 -19 -46 -33 -90 -89 -276 -126
-481 -134 -755 -13 -448 70 -833 266 -1230 218 -438 543 -810 957 -1094 62
-42 115 -76 118 -76 3 0 36 -19 73 -41 120 -74 342 -167 543 -227 444 -134
1022 -131 1480 9 422 128 783 350 1121 688 223 224 368 421 518 703 229 434
331 969 276 1450 -55 479 -200 855 -490 1270 -240 344 -601 663 -975 860 -300
158 -625 251 -990 283 -178 16 -261 17 -410 4z m500 -69 c222 -30 314 -51 510
-116 896 -300 1610 -1127 1773 -2054 62 -348 49 -728 -34 -1050 -26 -98 -86
-283 -111 -340 -119 -272 -197 -406 -359 -620 -291 -383 -645 -666 -1062 -849
-352 -155 -685 -218 -1092 -208 -383 10 -671 77 -1016 235 -300 138 -638 393
-862 651 -314 361 -496 702 -610 1141 -43 164 -77 427 -77 595 0 170 40 475
80 623 27 99 91 294 100 307 4 6 21 44 38 85 133 320 403 694 684 945 87 79
114 100 226 182 392 286 849 453 1332 487 88 6 398 -3 480 -14z"/>
<path d="M3850 6594 c-25 -3 -85 -11 -135 -20 -49 -8 -117 -20 -150 -25 -33
-5 -73 -14 -90 -19 -16 -5 -73 -23 -125 -39 -52 -17 -113 -37 -135 -45 -467
-171 -934 -543 -1226 -977 -336 -500 -473 -991 -439 -1575 15 -249 76 -535
155 -719 97 -228 166 -358 265 -505 225 -335 568 -656 895 -840 83 -47 236
-121 292 -141 32 -11 85 -31 118 -44 86 -33 279 -82 425 -107 106 -19 164 -22
385 -22 278 0 373 11 609 69 425 104 825 334 1162 670 504 501 774 1130 774
1801 0 149 -8 237 -37 414 -109 667 -534 1311 -1130 1712 -304 205 -586 317
-973 388 -91 17 -164 22 -355 25 -132 1 -260 1 -285 -1z m580 -70 c58 -7 123
-18 145 -23 151 -36 191 -47 282 -77 359 -120 685 -325 973 -614 114 -113 136
-139 252 -293 273 -365 432 -766 483 -1219 37 -334 -5 -694 -121 -1029 -42
-123 -172 -393 -240 -499 -45 -70 -180 -259 -193 -270 -3 -3 -46 -51 -95 -108
-48 -56 -94 -106 -101 -110 -7 -4 -47 -39 -89 -79 -284 -267 -684 -482 -1067
-573 -277 -65 -640 -82 -924 -41 -737 105 -1386 551 -1800 1236 -247 407 -370
921 -335 1394 24 326 97 593 245 896 174 356 419 660 727 902 388 306 841 487
1313 523 131 11 413 2 545 -16z"/>
<path d="M3720 5732 c-81 -8 -291 -74 -311 -98 -6 -8 -18 -14 -25 -14 -8 0
-11 -6 -8 -15 4 -10 0 -15 -11 -15 -10 0 -15 -5 -12 -13 3 -7 -4 -19 -14 -25
-10 -7 -19 -17 -19 -24 0 -6 -8 -21 -18 -32 -31 -35 -47 -105 -47 -201 1 -82
3 -94 30 -137 37 -57 122 -146 245 -258 52 -47 107 -97 123 -112 16 -16 30
-28 33 -28 2 0 13 -9 24 -20 27 -27 36 -20 44 36 26 190 259 248 589 146 80
-25 238 -103 322 -159 62 -42 152 -131 174 -172 l13 -24 25 25 c18 18 27 43
35 95 40 274 -250 713 -604 912 -166 94 -412 149 -588 133z"/>
<path d="M4085 4380 c3 -5 8 -10 11 -10 2 0 4 5 4 10 0 6 -5 10 -11 10 -5 0
-7 -4 -4 -10z"/>
<path d="M4180 4265 c0 -8 7 -15 15 -15 9 0 12 6 9 15 -4 8 -10 15 -15 15 -5
0 -9 -7 -9 -15z"/>
<path d="M4230 4227 c0 -17 22 -47 34 -47 11 0 6 15 -14 40 -17 21 -20 22 -20
7z"/>
<path d="M4281 4160 c1 -8 -1 -27 -5 -42 -10 -35 4 -60 16 -28 8 22 9 23 23 4
12 -15 14 -16 15 -3 0 8 -12 31 -26 50 -14 19 -24 27 -23 19z"/>
<path d="M4241 4144 c0 -11 3 -14 6 -6 3 7 2 16 -1 19 -3 4 -6 -2 -5 -13z"/>
<path d="M4305 4060 c-3 -4 1 -10 9 -13 9 -4 12 -15 8 -34 -5 -25 -4 -27 11
-14 24 19 22 57 -3 64 -11 3 -22 2 -25 -3z"/>
<path d="M4200 4050 c0 -5 5 -10 10 -10 6 0 10 5 10 10 0 6 -4 10 -10 10 -5 0
-10 -4 -10 -10z"/>
<path d="M4320 3965 c0 -8 5 -15 10 -15 6 0 8 -12 4 -27 -4 -22 -3 -25 5 -13
16 22 13 57 -4 64 -9 3 -15 0 -15 -9z"/>
<path d="M4320 3879 c0 -5 5 -7 10 -4 6 3 10 8 10 11 0 2 -4 4 -10 4 -5 0 -10
-5 -10 -11z"/>
<path d="M4275 3860 c3 -5 8 -10 11 -10 2 0 4 5 4 10 0 6 -5 10 -11 10 -5 0
-7 -4 -4 -10z"/>
<path d="M4299 3841 c-18 -18 -32 -51 -21 -51 10 1 44 49 40 59 -2 4 -10 1
-19 -8z"/>
<path d="M4200 3725 c0 -9 5 -15 11 -13 6 2 11 8 11 13 0 5 -5 11 -11 13 -6 2
-11 -4 -11 -13z"/>
<path d="M4940 3710 c80 -4 242 -9 360 -10 191 -2 315 -12 255 -20 -11 -2 -28
-3 -37 -2 -16 2 -22 -10 -21 -44 0 -6 -6 -11 -13 -11 -7 0 -10 5 -7 11 4 7 3
8 -4 1 -13 -12 -23 -359 -13 -434 5 -37 3 -52 -7 -55 -10 -4 -13 7 -13 44 0
30 -4 50 -11 50 -8 0 -9 -24 -4 -80 5 -56 4 -80 -4 -80 -15 0 -14 -73 1 -88 9
-9 15 -9 26 0 11 10 16 8 23 -5 6 -9 17 -17 24 -17 18 0 20 16 4 26 -8 4 -7 9
2 15 10 6 16 2 21 -14 4 -17 6 -13 7 15 1 31 -2 36 -15 31 -12 -4 -15 -2 -12
8 3 8 14 14 25 14 11 1 28 7 37 14 14 12 16 11 10 -5 -5 -18 -5 -18 10 0 9 11
16 27 16 36 0 9 9 26 20 38 11 12 20 30 20 42 0 11 5 20 10 20 6 0 16 12 22
26 9 20 9 27 -1 33 -10 7 -10 11 1 22 35 37 49 69 37 90 -10 19 -9 20 11 14
21 -7 22 -4 18 24 -3 18 -1 34 4 37 4 3 8 17 8 32 0 15 7 38 16 51 9 13 17 42
17 65 1 22 6 45 12 49 7 6 6 10 -2 14 -16 6 -17 24 -1 20 6 -1 14 6 16 16 3
16 -25 17 -505 15 -346 -1 -462 -4 -363 -8z m666 -558 c-12 -13 -18 -13 -28
-4 -9 9 -8 12 4 12 9 0 20 10 24 23 7 20 8 20 12 3 2 -10 -3 -26 -12 -34z"/>
<path d="M4085 3610 c3 -5 11 -10 16 -10 6 0 7 5 4 10 -3 6 -11 10 -16 10 -6
0 -7 -4 -4 -10z"/>
<path d="M5390 3580 c0 -13 7 -20 20 -20 13 0 20 7 20 20 0 13 -7 20 -20 20
-13 0 -20 -7 -20 -20z"/>
<path d="M4840 3386 c-20 -46 -115 -141 -190 -190 -222 -146 -522 -232 -684
-196 -28 6 -61 13 -74 16 -13 3 -43 23 -67 45 -43 40 -59 73 -81 174 -3 17 -9
24 -11 18 -3 -7 -9 -13 -15 -13 -5 0 -27 -17 -47 -38 -21 -21 -51 -48 -67 -61
-16 -13 -76 -66 -133 -119 -57 -54 -112 -102 -121 -109 -27 -19 -78 -105 -95
-159 -18 -60 -19 -137 -3 -201 16 -63 99 -187 146 -218 44 -28 213 -79 332
-99 111 -19 263 -5 400 36 64 20 204 90 257 129 29 22 55 39 58 39 7 0 63 49
93 83 14 15 31 27 39 27 7 0 13 4 13 9 0 6 26 37 59 70 83 87 149 181 203 295
99 205 107 428 19 483 -14 9 -19 6 -31 -21z"/>
<path d="M5336 3255 c-3 -8 -1 -15 4 -15 6 0 10 -18 10 -40 0 -29 4 -40 15
-40 11 0 15 11 15 40 0 22 -4 40 -10 40 -5 0 -10 7 -10 15 0 8 -4 15 -9 15 -5
0 -11 -7 -15 -15z"/>
<path d="M5547 3043 c-10 -9 -9 -23 2 -23 5 0 11 7 15 15 5 15 -5 20 -17 8z"/>
<path d="M5373 2988 c0 -7 -3 -37 -7 -65 -6 -38 -5 -53 4 -53 7 0 9 8 5 22 -6
17 -4 20 9 15 12 -5 16 0 16 21 0 15 3 37 6 50 5 17 2 22 -13 22 -11 0 -20 -6
-20 -12z"/>
<path d="M5442 2945 c6 -14 17 -25 24 -25 11 0 11 5 2 25 -6 14 -17 25 -24 25
-11 0 -11 -5 -2 -25z"/>
<path d="M5420 2885 c-7 -9 -10 -18 -7 -21 7 -8 47 14 47 26 0 15 -26 12 -40
-5z"/>
<path d="M5303 2833 c-36 -7 -27 -23 13 -23 23 0 34 4 32 12 -5 14 -15 17 -45
11z"/>
<path d="M5370 2820 c0 -5 5 -10 10 -10 6 0 10 5 10 10 0 6 -4 10 -10 10 -5 0
-10 -4 -10 -10z"/>
<path d="M5250 2750 c0 -5 7 -7 15 -4 8 4 15 8 15 10 0 2 -7 4 -15 4 -8 0 -15
-4 -15 -10z"/>
<path d="M5290 2741 c0 -6 4 -13 10 -16 6 -3 7 1 4 9 -7 18 -14 21 -14 7z"/>
<path d="M5238 2673 c7 -3 16 -2 19 1 4 3 -2 6 -13 5 -11 0 -14 -3 -6 -6z"/>
<path d="M2206 6661 c-18 -19 -16 -23 58 -124 50 -68 76 -114 76 -131 0 -34
-41 -76 -73 -76 -33 0 -52 19 -127 120 -35 47 -66 89 -70 93 -11 12 -50 -15
-49 -33 1 -21 137 -198 172 -224 60 -45 143 -21 195 54 44 66 21 124 -119 301
-35 45 -40 46 -63 20z"/>
<path d="M6099 6494 c-17 -38 -51 -116 -76 -172 l-45 -104 23 -24 c13 -14 31
-23 39 -21 20 5 293 186 302 201 8 13 -19 46 -38 46 -7 0 -53 -27 -101 -60
-48 -33 -91 -60 -95 -60 -15 0 -8 22 33 112 22 50 39 97 37 105 -2 9 -13 22
-25 30 -22 15 -24 14 -54 -53z"/>
<path d="M1585 6080 c-40 -21 -115 -104 -115 -127 0 -12 242 -220 266 -230 17
-6 79 62 105 115 28 56 22 117 -16 172 -56 81 -161 112 -240 70z m135 -65 c73
-38 93 -119 42 -176 l-28 -31 -87 71 c-48 40 -87 78 -87 86 0 7 14 25 31 39
35 30 84 34 129 11z"/>
<path d="M6586 5860 c-87 -32 -163 -63 -169 -69 -8 -8 -5 -17 10 -33 19 -19
26 -20 48 -10 41 19 62 14 84 -17 27 -37 26 -47 -3 -86 -23 -29 -24 -34 -10
-54 8 -11 21 -21 27 -20 7 0 61 66 121 146 106 142 109 147 95 172 -8 14 -21
27 -29 28 -8 1 -86 -25 -174 -57z m84 -57 c-1 -19 -30 -45 -45 -40 -18 8 -20
33 -2 40 19 8 47 8 47 0z"/>
<path d="M1134 5439 c-25 -50 -42 -95 -37 -99 4 -4 77 -43 161 -86 l154 -78
18 24 c34 45 84 160 74 169 -26 26 -49 16 -76 -34 -15 -27 -29 -54 -31 -59 -3
-10 -43 -2 -66 13 -13 8 -13 15 -1 51 12 36 12 43 -1 51 -25 16 -47 10 -53
-15 -8 -32 -31 -39 -67 -21 -35 19 -35 22 -4 76 14 24 25 52 25 61 0 15 -27
38 -44 38 -3 0 -26 -41 -52 -91z"/>
<path d="M6779 5214 c-17 -21 0 -49 31 -49 27 0 46 25 37 49 -8 21 -51 21 -68
0z"/>
<path d="M1200 4800 c-9 -16 -8 -25 1 -36 16 -19 58 -18 66 2 16 41 -46 73
-67 34z"/>
<path d="M6942 4803 c-14 -26 3 -53 34 -53 14 0 27 7 31 16 15 39 -46 73 -65
37z"/>
<path d="M1117 4379 c-22 -13 -22 -58 -1 -66 39 -15 73 46 37 65 -12 7 -25 7
-36 1z"/>
<path d="M7046 4375 c-9 -9 -16 -20 -16 -25 0 -15 32 -41 48 -38 24 5 39 35
26 56 -15 23 -38 26 -58 7z"/>
<path d="M1071 3921 c-14 -26 8 -54 40 -49 16 2 25 10 27 27 6 40 -48 58 -67
22z"/>
<path d="M7071 3926 c-9 -11 -10 -20 -1 -36 16 -30 64 -24 68 9 6 37 -43 57
-67 27z"/>
<path d="M1112 3488 c-18 -18 -14 -46 7 -58 38 -20 71 13 51 51 -12 21 -40 25
-58 7z"/>
<path d="M7048 3489 c-37 -21 -10 -77 31 -64 27 8 34 35 15 56 -19 22 -23 22
-46 8z"/>
<path d="M1203 3044 c-9 -24 10 -49 38 -49 20 0 24 5 24 30 0 25 -4 30 -28 33
-18 2 -29 -2 -34 -14z"/>
<path d="M6940 3045 c-18 -21 -3 -55 24 -55 33 0 50 23 36 49 -12 24 -42 27
-60 6z"/>
<path d="M6816 2608 c-27 -39 18 -80 52 -46 18 18 14 46 -7 58 -26 14 -28 13
-45 -12z"/>
<path d="M1440 2515 c-26 -31 13 -82 44 -56 19 16 21 42 4 59 -16 16 -33 15
-48 -3z"/>
<path d="M6585 2180 c-4 -6 -4 -22 -1 -36 5 -20 12 -25 34 -22 23 2 27 8 27
33 0 25 -4 31 -27 33 -14 2 -29 -2 -33 -8z"/>
<path d="M1686 2094 c-9 -8 -16 -19 -16 -24 0 -13 30 -40 44 -40 35 0 48 53
17 70 -25 13 -27 13 -45 -6z"/>
<path d="M6062 1978 c-20 -20 -14 -31 38 -83 28 -27 50 -54 50 -60 0 -13 -92
-105 -105 -105 -5 0 -33 24 -62 52 -44 44 -56 51 -71 42 -9 -6 -18 -17 -20
-25 -4 -22 243 -263 262 -256 32 13 30 37 -8 76 -20 20 -36 46 -35 56 1 11 23
40 50 64 l50 44 44 -43 c44 -43 69 -48 82 -14 4 11 -30 52 -118 140 -68 68
-128 124 -134 124 -6 0 -16 -5 -23 -12z"/>
<path d="M2124 1804 c-66 -69 -120 -132 -122 -139 -4 -16 129 -136 147 -133 8
2 19 11 25 20 9 15 3 26 -37 64 -43 43 -46 49 -34 68 26 38 44 42 71 17 16
-15 31 -21 44 -17 32 10 33 33 5 66 l-26 31 23 24 c13 14 29 25 35 25 6 0 29
-18 50 -40 44 -45 55 -48 80 -20 18 20 17 21 -56 90 -41 38 -77 70 -80 70 -4
0 -60 -57 -125 -126z"/>
<path d="M2682 1463 c-115 -199 -134 -234 -129 -246 2 -6 32 -27 66 -44 79
-42 136 -44 197 -8 56 33 85 81 91 153 8 83 -18 130 -97 176 -34 20 -67 36
-75 36 -8 0 -32 -30 -53 -67z m121 -43 c36 -28 52 -81 38 -123 -14 -41 -56
-82 -93 -91 -29 -7 -90 13 -102 33 -4 6 16 53 44 106 56 102 68 110 113 75z"/>
<path d="M5475 1506 c-117 -52 -159 -184 -91 -286 70 -107 242 -107 313 -1 29
43 29 49 -2 63 -23 10 -28 8 -64 -30 -34 -38 -43 -42 -84 -42 -145 0 -171 212
-28 236 59 9 63 12 59 41 -3 24 -8 28 -38 30 -19 2 -48 -3 -65 -11z"/>
<path d="M4845 1236 c-22 -8 -61 -19 -87 -26 -38 -10 -48 -17 -48 -34 0 -31
77 -317 88 -328 14 -14 190 31 197 50 7 18 -14 55 -28 49 -7 -2 -36 -10 -65
-18 -61 -15 -74 -7 -70 46 2 22 9 31 25 33 29 4 46 27 38 52 -6 19 -12 20 -50
14 -41 -6 -45 -4 -50 19 -12 48 -3 60 55 75 68 17 77 24 62 57 -13 29 -13 29
-67 11z"/>
<path d="M3345 1228 c-22 -67 -55 -218 -55 -252 0 -85 72 -145 162 -133 77 10
100 48 149 240 19 76 20 90 8 98 -23 14 -47 10 -53 -8 -3 -10 -17 -63 -31
-118 -15 -55 -33 -110 -41 -122 -30 -47 -134 -19 -134 36 0 10 14 71 30 135
17 64 28 121 25 126 -9 14 -55 12 -60 -2z"/>
<path d="M4072 1133 c-51 -4 -53 -5 -50 -31 3 -24 8 -27 45 -30 23 -2 46 -9
52 -16 6 -7 12 -74 13 -152 3 -138 3 -139 27 -142 13 -2 28 2 32 10 5 7 6 65
3 129 -9 158 -6 167 54 171 45 3 47 4 47 33 l0 30 -85 1 c-47 0 -109 -1 -138
-3z"/>
</g>
</svg>
